<svg width="102" height="11" viewBox="0 0 102 11" fill="none" xmlns="http://www.w3.org/2000/svg">
<path d="M3.7959 5.88037C2.75065 5.57992 1.98893 5.21175 1.51074 4.77588C1.03678 4.33577 0.799805 3.79411 0.799805 3.15088C0.799805 2.42301 1.08968 1.8221 1.66943 1.34814C2.25342 0.869954 3.0109 0.630859 3.94189 0.630859C4.57666 0.630859 5.1416 0.753581 5.63672 0.999023C6.13607 1.24447 6.52116 1.58301 6.79199 2.01465C7.06706 2.44629 7.20459 2.91813 7.20459 3.43018H5.97949C5.97949 2.87158 5.80176 2.43359 5.44629 2.11621C5.09082 1.7946 4.58936 1.63379 3.94189 1.63379C3.34098 1.63379 2.87126 1.76709 2.53271 2.03369C2.1984 2.29606 2.03125 2.66211 2.03125 3.13184C2.03125 3.50846 2.18994 3.82796 2.50732 4.09033C2.82894 4.34847 3.37272 4.58545 4.13867 4.80127C4.90885 5.01709 5.50977 5.25618 5.94141 5.51855C6.37728 5.77669 6.69889 6.07926 6.90625 6.42627C7.11784 6.77327 7.22363 7.18164 7.22363 7.65137C7.22363 8.40039 6.93164 9.0013 6.34766 9.4541C5.76367 9.90267 4.98291 10.127 4.00537 10.127C3.37061 10.127 2.77816 10.0063 2.22803 9.76514C1.6779 9.51969 1.2526 9.18538 0.952148 8.76221C0.655924 8.33903 0.507812 7.85872 0.507812 7.32129H1.73291C1.73291 7.87988 1.93815 8.3221 2.34863 8.64795C2.76335 8.96956 3.31559 9.13037 4.00537 9.13037C4.6486 9.13037 5.1416 8.99919 5.48438 8.73682C5.82715 8.47445 5.99854 8.11686 5.99854 7.66406C5.99854 7.21126 5.83984 6.86214 5.52246 6.6167C5.20508 6.36702 4.62956 6.12158 3.7959 5.88037ZM11.1401 5.70264L10.0103 6.87695V10H8.7915V0.757812H10.0103V5.32812L14.1172 0.757812H15.5898L11.9526 4.83936L15.8755 10H14.4155L11.1401 5.70264ZM18.2495 10H17.0308V0.757812H18.2495V10ZM21.709 9.00342H26.0889V10H20.4839V0.757812H21.709V9.00342ZM28.7041 9.00342H33.084V10H27.479V0.757812H28.7041V9.00342ZM34.4741 10V0.757812H37.4956C38.4985 0.757812 39.2518 0.965169 39.7554 1.37988C40.2632 1.7946 40.5171 2.4082 40.5171 3.2207C40.5171 3.65234 40.3944 4.03532 40.1489 4.36963C39.9035 4.69971 39.5692 4.95573 39.146 5.1377C39.6453 5.27734 40.0389 5.54395 40.3267 5.9375C40.6187 6.32682 40.7646 6.79232 40.7646 7.33398C40.7646 8.16341 40.4959 8.8151 39.9585 9.28906C39.4211 9.76302 38.6615 10 37.6797 10H34.4741ZM35.6929 5.67725V9.00342H37.7051C38.2721 9.00342 38.7186 8.85742 39.0444 8.56543C39.3745 8.26921 39.5396 7.86296 39.5396 7.34668C39.5396 6.23372 38.9344 5.67725 37.7241 5.67725H35.6929ZM35.6929 4.69971H37.5337C38.0669 4.69971 38.4922 4.56641 38.8096 4.2998C39.1312 4.0332 39.292 3.67139 39.292 3.21436C39.292 2.70654 39.1439 2.33838 38.8477 2.10986C38.5514 1.87712 38.1007 1.76074 37.4956 1.76074H35.6929V4.69971ZM49.6831 5.67725C49.6831 6.58285 49.5308 7.37419 49.2261 8.05127C48.9214 8.72412 48.4897 9.23828 47.9312 9.59375C47.3726 9.94922 46.7209 10.127 45.9761 10.127C45.2482 10.127 44.6029 9.94922 44.04 9.59375C43.4772 9.23405 43.0392 8.72412 42.7261 8.06396C42.4172 7.39958 42.2585 6.63151 42.25 5.75977V5.09326C42.25 4.20459 42.4045 3.4196 42.7134 2.73828C43.0223 2.05697 43.4582 1.53646 44.021 1.17676C44.5881 0.812826 45.2355 0.630859 45.9634 0.630859C46.7039 0.630859 47.3556 0.81071 47.9185 1.17041C48.4855 1.52588 48.9214 2.04427 49.2261 2.72559C49.5308 3.40267 49.6831 4.19189 49.6831 5.09326V5.67725ZM48.4707 5.08057C48.4707 3.98454 48.2507 3.14453 47.8105 2.56055C47.3704 1.97233 46.7547 1.67822 45.9634 1.67822C45.1932 1.67822 44.5859 1.97233 44.1416 2.56055C43.7015 3.14453 43.4751 3.95703 43.4624 4.99805V5.67725C43.4624 6.73942 43.6846 7.5752 44.1289 8.18457C44.5775 8.78971 45.1932 9.09229 45.9761 9.09229C46.7632 9.09229 47.3726 8.80664 47.8042 8.23535C48.2358 7.65983 48.458 6.83675 48.4707 5.76611V5.08057ZM54.3867 4.2998L56.6021 0.757812H58.0366L55.1167 5.34082L58.1064 10H56.6592L54.3867 6.39453L52.1016 10H50.6606L53.6567 5.34082L50.7305 0.757812H52.1587L54.3867 4.2998ZM81.9419 10H75.8862V9.15576L79.0854 5.60107C79.5594 5.06364 79.8853 4.62777 80.063 4.29346C80.245 3.95492 80.3359 3.60579 80.3359 3.24609C80.3359 2.76367 80.1899 2.368 79.8979 2.05908C79.606 1.75016 79.2166 1.5957 78.73 1.5957C78.146 1.5957 77.6911 1.76286 77.3652 2.09717C77.0436 2.42725 76.8828 2.88851 76.8828 3.48096H75.7085C75.7085 2.63037 75.9814 1.94271 76.5273 1.41797C77.0775 0.893229 77.8117 0.630859 78.73 0.630859C79.589 0.630859 80.2682 0.857259 80.7676 1.31006C81.2669 1.75863 81.5166 2.35742 81.5166 3.10645C81.5166 4.01628 80.9368 5.09961 79.7773 6.35645L77.3018 9.0415H81.9419V10ZM88.9814 6.05811C88.9814 7.43343 88.7466 8.4554 88.2769 9.12402C87.8071 9.79264 87.0729 10.127 86.0742 10.127C85.0882 10.127 84.3582 9.80111 83.8843 9.14941C83.4103 8.49349 83.1649 7.51595 83.1479 6.2168V4.64893C83.1479 3.29053 83.3828 2.28125 83.8525 1.62109C84.3223 0.960938 85.0586 0.630859 86.0615 0.630859C87.056 0.630859 87.7881 0.950358 88.2578 1.58936C88.7275 2.22412 88.9688 3.20589 88.9814 4.53467V6.05811ZM87.8071 4.45215C87.8071 3.45768 87.6675 2.73405 87.3882 2.28125C87.1089 1.82422 86.6667 1.5957 86.0615 1.5957C85.4606 1.5957 85.0226 1.8221 84.7476 2.2749C84.4725 2.7277 84.3307 3.42383 84.3223 4.36328V6.24219C84.3223 7.24089 84.4661 7.97933 84.7539 8.45752C85.0459 8.93148 85.486 9.16846 86.0742 9.16846C86.654 9.16846 87.0835 8.94417 87.3628 8.49561C87.6463 8.04704 87.7944 7.34033 87.8071 6.37549V4.45215ZM96.5415 10H90.4858V9.15576L93.6851 5.60107C94.159 5.06364 94.4849 4.62777 94.6626 4.29346C94.8446 3.95492 94.9355 3.60579 94.9355 3.24609C94.9355 2.76367 94.7896 2.368 94.4976 2.05908C94.2056 1.75016 93.8162 1.5957 93.3296 1.5957C92.7456 1.5957 92.2907 1.76286 91.9648 2.09717C91.6432 2.42725 91.4824 2.88851 91.4824 3.48096H90.3081C90.3081 2.63037 90.5811 1.94271 91.127 1.41797C91.6771 0.893229 92.4113 0.630859 93.3296 0.630859C94.1886 0.630859 94.8678 0.857259 95.3672 1.31006C95.8665 1.75863 96.1162 2.35742 96.1162 3.10645C96.1162 4.01628 95.5365 5.09961 94.377 6.35645L91.9014 9.0415H96.5415V10ZM101.645 10H100.464V2.17334L98.0967 3.04297V1.97656L101.461 0.713379H101.645V10Z" fill="#2E2B44"/>
<path d="M62.2451 5.37256C62.2451 4.51774 62.4419 3.72428 62.8354 2.99219C63.2332 2.26009 63.7812 1.68457 64.4795 1.26562C65.182 0.842448 65.9395 0.630859 66.752 0.630859C67.5645 0.630859 68.3198 0.842448 69.0181 1.26562C69.7163 1.68457 70.2622 2.26009 70.6558 2.99219C71.0535 3.72428 71.2524 4.51774 71.2524 5.37256C71.2524 6.20622 71.062 6.98698 70.6812 7.71484C70.3003 8.44271 69.7586 9.02881 69.0562 9.47314C68.3579 9.91325 67.5898 10.1333 66.752 10.1333C65.9183 10.1333 65.1502 9.91536 64.4478 9.47949C63.7495 9.03939 63.2078 8.4554 62.8228 7.72754C62.4377 6.99967 62.2451 6.21468 62.2451 5.37256ZM62.9751 5.37256C62.9751 6.10042 63.1444 6.77539 63.4829 7.39746C63.8215 8.0153 64.2806 8.49984 64.8604 8.85107C65.4443 9.20231 66.0749 9.37793 66.752 9.37793C67.4333 9.37793 68.0659 9.2002 68.6499 8.84473C69.2339 8.48503 69.6909 7.99837 70.021 7.38477C70.3553 6.77116 70.5225 6.10042 70.5225 5.37256C70.5225 4.64893 70.3553 3.98242 70.021 3.37305C69.6909 2.75944 69.2339 2.27702 68.6499 1.92578C68.0659 1.57031 67.4333 1.39258 66.752 1.39258C66.0749 1.39258 65.4443 1.5682 64.8604 1.91943C64.2764 2.26644 63.8151 2.74886 63.4766 3.3667C63.1423 3.98454 62.9751 4.65316 62.9751 5.37256ZM65.8188 5.84863V7.99414H64.9238V2.60498H66.6758C67.3232 2.60498 67.8247 2.74463 68.1802 3.02393C68.5399 3.29899 68.7197 3.70101 68.7197 4.22998C68.7197 4.75049 68.4489 5.14827 67.9072 5.42334C68.4235 5.63493 68.6838 6.06657 68.688 6.71826V7.10547C68.688 7.4694 68.724 7.73177 68.7959 7.89258V7.99414H67.8755C67.8162 7.8418 67.7866 7.57096 67.7866 7.18164C67.7866 6.78809 67.7803 6.55534 67.7676 6.4834C67.6999 6.07715 67.4227 5.86556 66.936 5.84863H65.8188ZM65.8188 5.03613H66.8091C67.1138 5.02767 67.3592 4.95361 67.5454 4.81396C67.7316 4.67432 67.8247 4.49023 67.8247 4.26172C67.8247 3.9528 67.7422 3.73486 67.5771 3.60791C67.4121 3.47673 67.118 3.41113 66.6948 3.41113H65.8188V5.03613Z" fill="#3F2AFF"/>
</svg>
